# Blender v2.69 (sub 0) OBJ File: 'clavier.blend'
# www.blender.org
mtllib clavier.mtl
o Cube
v 4.013257 0.382527 -1.002346
v 4.013257 0.004729 0.961647
v -1.000000 0.004729 0.961647
v -1.000000 0.382527 -1.002346
v 4.013258 0.594099 -0.961647
v 4.013257 0.216300 1.002346
v -1.000000 0.216300 1.002345
v -1.000000 0.594099 -0.961647
v 4.013257 0.359462 -0.879163
v 4.013257 0.130661 0.306983
v 3.804888 0.382527 -1.002346
v -0.785536 0.382527 -1.002346
v 3.804888 0.004729 0.961647
v -0.785537 0.004729 0.961647
v -1.000000 0.130662 0.306983
v -1.000000 0.359462 -0.879164
v 3.804888 0.359462 -0.879164
v -0.785536 0.359462 -0.879164
v 3.804888 0.130662 0.306983
v -0.785536 0.130662 0.306983
v 4.013257 0.000316 -1.072639
v -1.000000 0.000317 -1.072640
v 4.013257 0.001062 -0.949457
v 3.804888 0.000317 -1.072639
v -0.785536 0.000317 -1.072640
v -1.000000 0.001062 -0.949458
v 3.804888 0.001062 -0.949457
v -0.785536 0.001062 -0.949457
vn -0.000000 -0.981996 -0.188899
vn 0.000000 0.981996 0.188899
vn 1.000000 0.000000 -0.000000
vn 0.000000 -0.188899 0.981997
vn -1.000000 -0.000002 -0.000001
vn 0.000001 0.188901 -0.981996
vn -1.000000 -0.000001 0.000000
vn 0.000000 -0.981899 -0.189403
vn 1.000000 -0.000001 0.000001
vn 0.000000 -0.982917 -0.184048
vn -0.000000 -0.981900 -0.189403
vn 0.000000 -0.981900 -0.189402
vn 0.000000 -0.981997 -0.188899
vn -0.000000 -0.999982 0.006054
vn -0.000001 -0.192465 0.981304
vn 0.000000 -0.192466 0.981304
vn 0.000000 0.180880 -0.983505
vn -1.000000 0.000000 -0.000001
vn 0.000002 0.180880 -0.983505
vn -0.000001 -0.188903 0.981996
vn -0.000000 -0.188903 0.981996
vn -1.000000 -0.000003 -0.000001
vn 0.000000 0.188902 -0.981996
vn 0.000000 0.188901 -0.981996
vn -1.000000 0.000000 0.000000
vn 1.000000 0.000000 0.000001
vn 0.000000 -0.981899 -0.189402
vn 0.000000 -0.981996 -0.188900
vn 0.000000 -0.999982 0.006053
vn -0.000001 -0.192466 0.981304
usemtl Clavier
s off
f 20//1 14//1 15//1
f 5//2 8//2 6//2
f 1//3 5//3 9//3
f 14//4 7//4 3//4
f 16//5 8//5 4//5
f 8//6 12//6 4//6
f 17//7 11//7 24//7
f 18//8 20//8 16//8
f 12//9 18//9 25//9
f 11//10 17//10 12//10
f 9//11 10//11 17//11
f 17//12 19//12 18//12
f 10//13 2//13 19//13
f 19//1 13//1 20//1
f 25//14 28//14 22//14
f 21//14 23//14 24//14
f 9//15 17//15 23//15
f 18//16 16//16 28//16
f 11//17 1//17 24//17
f 1//3 9//3 21//3
f 16//18 4//18 22//18
f 4//19 12//19 22//19
f 14//1 3//1 15//1
f 8//2 7//2 6//2
f 6//3 2//3 10//3
f 5//3 6//3 9//3
f 6//3 10//3 9//3
f 2//20 6//20 13//20
f 6//21 7//21 13//21
f 7//4 14//4 13//4
f 3//5 7//5 15//5
f 7//22 8//22 16//22
f 15//18 7//18 16//18
f 5//6 1//6 11//6
f 8//23 5//23 11//23
f 12//24 8//24 11//24
f 27//25 17//25 24//25
f 20//12 15//12 16//12
f 18//26 28//26 25//26
f 17//10 18//10 12//10
f 10//27 19//27 17//27
f 19//12 20//12 18//12
f 2//28 13//28 19//28
f 13//1 14//1 20//1
f 28//29 26//29 22//29
f 23//14 27//14 24//14
f 17//30 27//30 23//30
f 16//15 26//15 28//15
f 1//17 21//17 24//17
f 9//3 23//3 21//3
f 26//18 16//18 22//18
f 12//17 25//17 22//17
